<?xml version="1.0" standalone="no"?>
<!DOCTYPE svg PUBLIC "-//W3C//DTD SVG 20010904//EN"
 "http://www.w3.org/TR/2001/REC-SVG-20010904/DTD/svg10.dtd">
<svg version="1.0" xmlns="http://www.w3.org/2000/svg"
 width="700.000000pt" height="700.000000pt" viewBox="0 0 700.000000 700.000000"
 preserveAspectRatio="xMidYMid meet">
<metadata>
Created by potrace 1.14, written by Peter Selinger 2001-2017
</metadata>
<g transform="translate(0.000000,700.000000) scale(0.100000,-0.100000)"
fill="#000000" stroke="none">
<path d="M315 4812 c-48 -3 -51 -5 -82 -52 -18 -28 -33 -54 -33 -59 0 -5 -3
-11 -8 -13 -7 -3 -37 -49 -159 -239 -18 -28 -33 -54 -33 -59 0 -17 45 -18 79
0 63 32 233 172 320 263 20 22 62 66 94 98 l57 59 -42 1 c-24 0 -65 1 -93 2
-27 1 -72 1 -100 -1z"/>
<path d="M1322 4809 c-13 -5 -8 -9 18 -16 43 -12 186 -8 220 6 22 9 20 10 -22
11 -144 5 -200 4 -216 -1z"/>
<path d="M4444 4809 c-4 -7 70 -59 85 -59 5 0 11 -4 13 -8 2 -4 36 -22 77 -40
99 -45 199 -54 294 -29 79 20 106 36 165 95 l43 42 -78 1 c-453 4 -595 3 -599
-2z"/>
<path d="M2988 4365 c-2 -2 -20 -6 -42 -9 -46 -7 -165 -53 -187 -72 -8 -8 -19
-14 -24 -14 -9 0 -129 -85 -169 -120 -36 -32 -145 -141 -171 -171 -77 -91
-136 -165 -170 -214 -22 -32 -45 -63 -50 -69 -11 -12 -67 -95 -75 -111 -3 -5
-28 -44 -55 -85 -27 -41 -55 -84 -61 -95 -6 -11 -50 -84 -97 -161 -48 -78 -87
-146 -87 -152 0 -6 -3 -12 -7 -14 -8 -3 -113 -165 -113 -173 0 -3 -27 -44 -60
-92 -72 -105 -166 -213 -185 -213 -13 0 -65 96 -65 120 0 5 -4 18 -10 28 -10
18 -38 109 -46 151 -3 14 -8 29 -12 35 -3 6 -8 17 -9 24 -7 28 -10 39 -26 76
-9 21 -17 42 -17 47 0 5 -4 9 -10 9 -5 0 -10 5 -10 11 0 29 -67 68 -126 73
-100 8 -209 -74 -322 -244 -20 -30 -39 -57 -42 -60 -8 -8 -121 -170 -285 -410
-43 -63 -102 -150 -132 -192 l-53 -78 62 -1 c201 -3 219 -1 236 19 9 10 51 56
92 102 41 46 83 92 93 104 10 12 51 56 90 100 40 43 86 94 103 112 l30 35 24
-73 c61 -186 138 -306 242 -375 35 -24 44 -25 196 -25 155 0 160 1 211 28 29
16 60 35 69 44 9 8 33 27 53 42 42 32 135 123 193 192 22 26 49 58 60 70 10
11 30 37 45 56 14 19 34 44 43 54 10 11 30 38 45 60 15 23 30 43 33 46 3 3 13
16 22 30 9 14 32 46 50 71 72 100 214 302 223 318 6 9 12 18 15 21 3 3 30 39
60 80 30 41 59 80 65 86 5 7 19 24 29 38 23 32 40 52 125 146 107 118 245 210
294 194 20 -6 78 -60 122 -114 23 -28 138 -199 144 -215 6 -16 83 -129 98
-143 7 -7 13 -16 13 -20 0 -4 11 -20 25 -37 33 -40 33 -40 89 -115 27 -36 53
-66 58 -68 4 -2 8 -8 8 -14 0 -5 6 -15 13 -22 6 -7 23 -28 37 -46 14 -18 40
-52 58 -74 65 -79 107 -130 117 -140 6 -6 23 -27 39 -46 91 -111 315 -341 411
-421 22 -19 42 -36 45 -40 3 -3 21 -17 41 -32 l36 -27 342 -1 c390 -2 353 -11
390 96 21 58 24 72 38 145 10 48 9 440 0 525 -13 117 -17 148 -22 185 -21 161
-26 290 -10 296 29 12 258 -93 410 -187 62 -38 410 -271 415 -278 3 -4 37 -29
75 -56 68 -47 114 -82 145 -108 8 -7 42 -33 75 -57 33 -25 62 -47 65 -50 3 -3
34 -27 70 -55 36 -27 67 -52 70 -55 3 -3 23 -18 45 -35 22 -16 42 -31 45 -34
10 -12 167 -128 210 -157 69 -46 198 -109 206 -102 11 11 -97 191 -160 266
-191 230 -713 762 -747 762 -5 0 -9 4 -9 9 0 10 -182 162 -289 242 -244 181
-478 303 -628 326 -130 20 -261 -5 -325 -62 -81 -71 -128 -204 -144 -405 -6
-72 -5 -336 2 -435 8 -139 11 -275 5 -275 -3 0 -33 30 -66 66 -33 37 -67 74
-75 83 -8 9 -31 37 -50 61 -19 25 -39 50 -45 57 -21 26 -31 39 -55 73 -13 19
-27 37 -30 40 -4 3 -21 28 -40 55 -19 28 -36 52 -40 55 -3 3 -28 39 -55 80
-28 41 -53 77 -57 78 -5 2 -8 8 -8 14 0 5 -6 16 -12 23 -30 33 -38 45 -38 55
0 5 -4 10 -10 10 -5 0 -10 6 -10 13 0 7 -8 22 -17 33 -28 30 -123 171 -123
181 0 5 -9 15 -20 23 -11 8 -20 18 -20 22 0 24 -243 331 -330 418 -163 162
-330 238 -518 238 -50 0 -92 -1 -94 -3z"/>
</g>
</svg>
